<svg version="1.1" id="Layer_1" xmlns="http://www.w3.org/2000/svg" xmlns:xlink="http://www.w3.org/1999/xlink" x="0px" y="0px"
	 width="100%" viewBox="0 0 1067 1067" enable-background="new 0 0 1067 1067" xml:space="preserve">
<path fill="#0099FF" opacity="1.000000" stroke="none" 
	d="
M344.725830,1020.311157 
	C327.914032,1012.713745 311.050812,1006.075684 295.017670,997.824524 
	C268.483093,984.168884 242.962616,968.683167 219.588287,949.994324 
	C206.770844,939.746155 194.003662,929.365051 181.965256,918.231323 
	C168.593307,905.864380 155.433975,893.145325 143.326309,879.559814 
	C120.465149,853.908203 100.405701,826.062195 83.149628,796.329163 
	C63.067787,761.727051 46.889637,725.301880 35.612305,686.903992 
	C29.897602,667.446167 25.326633,647.606934 21.229332,627.735840 
	C18.561829,614.799011 17.755264,601.483887 15.977977,588.356873 
	C12.813545,564.984375 12.426075,541.469849 13.159527,517.982300 
	C13.646116,502.400146 15.165788,486.803467 17.121490,471.326843 
	C19.184044,455.004639 21.925236,438.741821 25.063906,422.587860 
	C30.592117,394.135651 39.360733,366.551727 50.238682,339.758759 
	C62.017635,310.746582 75.797989,282.613251 93.159729,256.448120 
	C103.514801,240.842438 114.295319,225.500992 125.382851,210.406769 
	C131.110031,202.609970 137.682831,195.385849 144.303207,188.304688 
	C154.852036,177.021637 165.529648,165.838974 176.568039,155.038239 
	C194.308609,137.679596 213.791138,122.396767 233.977142,107.974159 
	C259.666840,89.619217 287.015839,74.152977 315.590363,60.840107 
	C341.100952,48.954712 367.340942,38.933620 394.661133,32.032921 
	C411.666504,27.737598 428.737427,23.607582 445.939819,20.220394 
	C456.991791,18.044243 468.342010,17.399628 479.548187,15.986274 
	C502.427887,13.100624 525.429626,12.340575 548.421509,13.145986 
	C565.003784,13.726862 581.559631,15.442933 598.089722,17.041611 
	C625.402954,19.683168 652.123596,25.579504 678.460876,33.067963 
	C712.824097,42.838387 745.882751,56.008270 777.436951,72.825699 
	C802.640686,86.258507 826.653320,101.525124 849.436523,118.807022 
	C871.984497,135.910492 893.092407,154.587830 912.502991,175.123520 
	C929.745422,193.365387 945.618347,212.749969 960.175598,233.274109 
	C976.638367,256.484894 991.209534,280.785553 1003.576355,306.330139 
	C1020.398621,341.077820 1033.693115,377.203125 1041.889404,415.001312 
	C1045.545166,431.859802 1048.282715,448.934967 1050.903931,465.993652 
	C1052.471558,476.195862 1053.287964,486.538910 1053.940186,496.850372 
	C1054.868408,511.529572 1056.155396,526.258301 1055.790405,540.928589 
	C1055.344604,558.840332 1053.543091,576.730652 1051.972656,594.599060 
	C1049.726318,620.153931 1044.615356,645.217468 1037.966553,669.958679 
	C1031.679932,693.351746 1024.316162,716.438232 1014.077881,738.411926 
	C1004.724731,758.485901 995.497864,778.753662 984.246338,797.771057 
	C972.495300,817.632690 959.277161,836.793274 945.071594,854.988708 
	C930.803223,873.264771 915.255615,890.694153 898.941589,907.181458 
	C879.898865,926.426575 858.772583,943.400513 836.688538,959.233032 
	C809.656067,978.613220 781.015686,995.115723 750.864014,1008.883057 
	C717.850647,1023.956970 683.714539,1036.091675 647.958069,1042.989258 
	C630.364136,1046.383301 612.694519,1049.566772 594.930359,1051.839111 
	C580.579590,1053.674927 566.041077,1054.088257 551.575806,1054.967529 
	C543.155334,1055.479492 534.682861,1056.297363 526.290527,1055.868042 
	C509.044678,1054.985840 491.834015,1053.395020 474.614227,1052.027954 
	C447.533417,1049.877930 421.088867,1044.147217 395.020569,1036.861694 
	C379.100861,1032.412476 363.561218,1026.603516 347.849609,1021.409424 
	C346.921753,1021.102722 345.981750,1020.832764 344.725830,1020.311157 
M495.363586,315.936829 
	C481.007629,318.443298 466.651642,320.949768 452.239502,323.466034 
	C431.439606,277.856171 389.191376,257.674835 351.033325,259.618225 
	C306.408691,261.891022 273.387329,283.695618 256.505890,325.061188 
	C237.390228,371.901367 249.738937,412.969238 285.807892,447.657196 
	C284.977081,449.145020 284.055267,450.716736 283.206512,452.326996 
	C246.323593,522.301086 244.350906,593.126160 279.930328,663.912964 
	C307.813965,719.388550 352.517578,757.745911 408.655396,782.866333 
	C469.850677,810.249878 533.731812,816.242432 599.112549,802.598572 
	C664.435425,788.966675 720.313965,757.946533 762.024475,705.184937 
	C815.473816,637.574585 828.399170,562.362061 798.837585,480.785187 
	C794.617798,469.140564 788.609863,458.143890 783.455872,446.904816 
	C818.290588,413.352997 830.666321,373.227448 813.093079,327.253601 
	C797.130371,285.493378 764.788696,262.149536 720.160400,259.783661 
	C671.650391,257.211945 637.522766,280.907135 615.853455,323.950073 
	C615.228149,323.832855 614.419189,323.729156 613.635559,323.527466 
	C574.992493,313.582703 535.871765,310.964600 495.363586,315.936829 
z"/>
<path fill="#FFFFFF" opacity="1.000000" stroke="none" 
	d="
M495.811584,315.895905 
	C535.871765,310.964600 574.992493,313.582703 613.635559,323.527466 
	C614.419189,323.729156 615.228149,323.832855 615.853455,323.950073 
	C637.522766,280.907135 671.650391,257.211945 720.160400,259.783661 
	C764.788696,262.149536 797.130371,285.493378 813.093079,327.253601 
	C830.666321,373.227448 818.290588,413.352997 783.455872,446.904816 
	C788.609863,458.143890 794.617798,469.140564 798.837585,480.785187 
	C828.399170,562.362061 815.473816,637.574585 762.024475,705.184937 
	C720.313965,757.946533 664.435425,788.966675 599.112549,802.598572 
	C533.731812,816.242432 469.850677,810.249878 408.655396,782.866333 
	C352.517578,757.745911 307.813965,719.388550 279.930328,663.912964 
	C244.350906,593.126160 246.323593,522.301086 283.206512,452.326996 
	C284.055267,450.716736 284.977081,449.145020 285.807892,447.657196 
	C249.738937,412.969238 237.390228,371.901367 256.505890,325.061188 
	C273.387329,283.695618 306.408691,261.891022 351.033325,259.618225 
	C389.191376,257.674835 431.439606,277.856171 452.239502,323.466034 
	C466.651642,320.949768 481.007629,318.443298 495.811584,315.895905 
z"/>
</svg>